<svg width="263" height="169" viewBox="0 0 263 169" fill="none" xmlns="http://www.w3.org/2000/svg">
<path d="M4.08936 72V1.61719H20.8633C29.0811 1.61719 35.4619 4.19531 40.0059 9.35156C44.5498 14.4756 46.8218 21.6943 46.8218 31.0078V42.8027C46.8218 52.1162 44.5176 59.3188 39.9092 64.4106C35.3008 69.4702 28.6138 72 19.8481 72H4.08936ZM12.9355 9.25488V64.4106H20.0415C26.2612 64.4106 30.8052 62.6382 33.6733 59.0933C36.5415 55.5161 38.0078 50.231 38.0723 43.2378V30.7661C38.0723 23.354 36.6382 17.9238 33.77 14.4756C30.9341 10.9951 26.6318 9.25488 20.8633 9.25488H12.9355ZM67.693 19.6963V78.5742C67.5963 88.2744 63.7613 93.1245 56.1881 93.1245C54.4479 93.1245 52.8849 92.8345 51.4991 92.2544L51.4508 85.1001C52.3209 85.3579 53.4327 85.4868 54.7863 85.4868C56.2364 85.4868 57.316 84.939 58.025 83.8433C58.7662 82.7798 59.1368 80.9106 59.1368 78.2358V19.6963H67.693ZM68.0797 5.82275C68.0797 7.27295 67.6769 8.48145 66.8712 9.44824C66.0655 10.415 64.8409 10.8984 63.1974 10.8984C61.5861 10.8984 60.3776 10.415 59.5719 9.44824C58.7985 8.48145 58.4117 7.27295 58.4117 5.82275C58.4117 4.37256 58.7985 3.14795 59.5719 2.14893C60.3776 1.1499 61.5861 0.650391 63.1974 0.650391C64.8087 0.650391 66.0172 1.16602 66.8229 2.19727C67.6608 3.19629 68.0797 4.40479 68.0797 5.82275ZM107.513 72C106.998 70.8721 106.627 68.9707 106.402 66.2959C103.372 70.7432 99.5051 72.9668 94.8 72.9668C90.0627 72.9668 86.3567 71.6455 83.6819 69.0029C81.0393 66.3281 79.718 62.5737 79.718 57.7397C79.718 52.4224 81.5227 48.2007 85.1321 45.0747C88.7414 41.9487 93.6882 40.3535 99.9724 40.2891H106.257V34.73C106.257 31.604 105.564 29.3804 104.178 28.0591C102.792 26.7378 100.681 26.0771 97.8455 26.0771C95.2673 26.0771 93.1726 26.8506 91.5613 28.3975C89.9499 29.9121 89.1443 31.8457 89.1443 34.1982H80.5881C80.5881 31.5234 81.3777 28.9775 82.9568 26.5605C84.5359 24.1113 86.6628 22.1938 89.3376 20.8081C92.0124 19.4224 94.9934 18.7295 98.2805 18.7295C103.63 18.7295 107.691 20.0669 110.462 22.7417C113.266 25.3843 114.7 29.2515 114.764 34.3433V60.7368C114.797 64.7651 115.344 68.2617 116.408 71.2266V72H107.513ZM96.1052 65.1841C98.1999 65.1841 100.198 64.604 102.099 63.4438C104.001 62.2837 105.386 60.8335 106.257 59.0933V46.6216H101.423C97.3621 46.686 94.1555 47.6045 91.803 49.377C89.4504 51.1172 88.2742 53.5664 88.2742 56.7246C88.2742 59.6895 88.8704 61.8486 90.0627 63.2021C91.2551 64.5234 93.2693 65.1841 96.1052 65.1841ZM135.636 19.6963L135.877 25.3521C139.197 20.937 143.434 18.7295 148.591 18.7295C157.84 18.7295 162.529 24.9009 162.658 37.2437V72H154.15V37.6304C154.15 33.5376 153.457 30.6372 152.071 28.9292C150.718 27.189 148.671 26.3188 145.932 26.3188C143.805 26.3188 141.888 27.0278 140.18 28.4458C138.504 29.8638 137.15 31.7168 136.119 34.0049V72H127.563V19.6963H135.636ZM173.329 43.4795C173.329 35.3262 174.812 29.1709 177.776 25.0137C180.741 20.8242 185.076 18.7295 190.78 18.7295C196.097 18.7295 200.142 21.0015 202.913 25.5454L203.348 19.6963H211.083V72.4834C211.083 78.9609 209.423 83.9238 206.104 87.3721C202.784 90.8525 198.16 92.5928 192.23 92.5928C189.652 92.5928 186.751 91.9482 183.529 90.6592C180.338 89.4023 177.937 87.8394 176.326 85.9702L179.807 80.0728C183.352 83.5532 187.267 85.2935 191.553 85.2935C198.675 85.2935 202.333 81.4102 202.526 73.6436V66.8276C199.755 70.9204 195.823 72.9668 190.731 72.9668C185.317 72.9668 181.096 70.9365 178.066 66.876C175.037 62.7832 173.458 56.918 173.329 49.2803V43.4795ZM181.885 48.3618C181.885 54.2271 182.739 58.5454 184.447 61.3169C186.187 64.0562 189.023 65.4258 192.955 65.4258C197.209 65.4258 200.399 63.2505 202.526 58.8999V32.748C200.303 28.4619 197.145 26.3188 193.052 26.3188C189.12 26.3188 186.284 27.7046 184.544 30.4761C182.804 33.2153 181.917 37.437 181.885 43.1411V48.3618ZM221.561 43.4312C221.561 35.8257 223.398 29.8154 227.071 25.4004C230.777 20.9531 235.66 18.7295 241.718 18.7295C247.777 18.7295 252.643 20.8887 256.317 25.207C260.023 29.5254 261.924 35.4067 262.021 42.8511V48.3618C262.021 55.9351 260.184 61.9292 256.51 66.3442C252.837 70.7593 247.938 72.9668 241.815 72.9668C235.756 72.9668 230.89 70.8237 227.216 66.5376C223.575 62.2515 221.69 56.4507 221.561 49.1353V43.4312ZM230.117 48.3618C230.117 53.7437 231.164 57.9814 233.259 61.0752C235.386 64.1367 238.238 65.6675 241.815 65.6675C249.356 65.6675 253.239 60.2212 253.465 49.3286V43.4312C253.465 38.0815 252.401 33.8599 250.275 30.7661C248.148 27.6401 245.296 26.0771 241.718 26.0771C238.206 26.0771 235.386 27.6401 233.259 30.7661C231.164 33.8599 230.117 38.0654 230.117 43.3828V48.3618ZM34.8335 150.211C34.8335 146.698 33.8828 144.007 31.9814 142.138C30.0801 140.269 26.6479 138.448 21.6851 136.676C16.7222 134.903 12.9194 133.05 10.2769 131.117C7.6665 129.151 5.70068 126.927 4.37939 124.446C3.09033 121.932 2.4458 119.064 2.4458 115.841C2.4458 110.266 4.29883 105.674 8.00488 102.064C11.7432 98.4551 16.6255 96.6504 22.6519 96.6504C26.7769 96.6504 30.4507 97.585 33.6733 99.4541C36.896 101.291 39.3774 103.853 41.1177 107.14C42.8579 110.427 43.728 114.037 43.728 117.968H34.8335C34.8335 113.618 33.7861 110.25 31.6914 107.865C29.5967 105.48 26.5835 104.288 22.6519 104.288C19.0747 104.288 16.3032 105.287 14.3374 107.285C12.3716 109.283 11.3887 112.087 11.3887 115.696C11.3887 118.661 12.4521 121.143 14.5791 123.141C16.7061 125.139 19.9932 126.927 24.4404 128.506C31.3691 130.794 36.3159 133.614 39.2808 136.966C42.2778 140.317 43.7764 144.7 43.7764 150.114C43.7764 155.818 41.9233 160.395 38.2173 163.843C34.5112 167.259 29.4678 168.967 23.0869 168.967C18.9941 168.967 15.2075 168.081 11.7271 166.308C8.27881 164.503 5.55566 161.99 3.55762 158.767C1.5918 155.512 0.608887 151.79 0.608887 147.601H9.50342C9.50342 151.951 10.7119 155.335 13.1289 157.752C15.5781 160.169 18.8975 161.377 23.0869 161.377C26.9863 161.377 29.9189 160.378 31.8848 158.38C33.8506 156.382 34.8335 153.659 34.8335 150.211ZM64.9376 103.031V115.696H72.817V122.609H64.9376V155.045C64.9376 157.107 65.276 158.67 65.9528 159.734C66.6295 160.797 67.7897 161.329 69.4332 161.329C70.5612 161.329 71.7052 161.136 72.8654 160.749L72.7687 168C70.8351 168.645 68.8531 168.967 66.8229 168.967C63.4391 168.967 60.861 167.758 59.0885 165.341C57.316 162.924 56.4298 159.508 56.4298 155.093V122.609H48.4537V115.696H56.4298V103.031H64.9376ZM79.7663 139.431C79.7663 131.826 81.6033 125.815 85.2771 121.4C88.9831 116.953 93.8655 114.729 99.9241 114.729C105.983 114.729 110.849 116.889 114.523 121.207C118.229 125.525 120.13 131.407 120.227 138.851V144.362C120.227 151.935 118.39 157.929 114.716 162.344C111.042 166.759 106.144 168.967 100.021 168.967C93.9622 168.967 89.0959 166.824 85.4221 162.538C81.7805 158.251 79.8953 152.451 79.7663 145.135V139.431ZM88.3225 144.362C88.3225 149.744 89.3699 153.981 91.4646 157.075C93.5915 160.137 96.4436 161.667 100.021 161.667C107.562 161.667 111.445 156.221 111.671 145.329V139.431C111.671 134.082 110.607 129.86 108.48 126.766C106.353 123.64 103.501 122.077 99.9241 122.077C96.4114 122.077 93.5915 123.64 91.4646 126.766C89.3699 129.86 88.3225 134.065 88.3225 139.383V144.362ZM152.361 123.721C151.169 123.495 149.88 123.382 148.494 123.382C144.111 123.382 141.05 125.783 139.309 130.585V168H130.753V115.696H139.068L139.213 121.014C141.501 116.824 144.74 114.729 148.929 114.729C150.283 114.729 151.411 114.955 152.313 115.406L152.361 123.721ZM178.163 168.967C171.653 168.967 166.658 167.033 163.178 163.166C159.697 159.267 157.925 153.562 157.86 146.054V139.721C157.86 131.922 159.552 125.815 162.936 121.4C166.352 116.953 171.105 114.729 177.196 114.729C183.319 114.729 187.895 116.679 190.925 120.579C193.954 124.478 195.501 130.553 195.565 138.803V144.41H166.368V145.619C166.368 151.226 167.416 155.303 169.51 157.849C171.637 160.395 174.683 161.667 178.646 161.667C181.16 161.667 183.368 161.2 185.269 160.266C187.203 159.299 189.007 157.784 190.683 155.722L195.13 161.136C191.424 166.356 185.769 168.967 178.163 168.967ZM177.196 122.077C173.651 122.077 171.025 123.302 169.317 125.751C167.609 128.168 166.642 131.938 166.416 137.062H187.009V135.902C186.784 130.939 185.881 127.395 184.302 125.268C182.755 123.141 180.387 122.077 177.196 122.077Z" fill="white"/>
</svg>
